# xmcd CD database file
#
# Track frame offsets:
#	150
#	12558
#	30508
#	45030
#	56220
#	70648
#	89680
#	102620
#	119588
#	131903
#	145905
#	159833
#	172575
#	187630
#	210360
#	222008
#	231953
#	251798
#	269548
#	289560
#
# Disc length: 4021 seconds
#
# Revision: 1
# Processed by: cddbd v1.4PL0 Copyright (c) Steve Scherf et al.
# Submitted via: CDex 1.50Beta7
#
DISCID=190fb314
DTITLE=variados - CONVITE PARA OUVIR - ITÁLIA II
DYEAR=1900
DGENRE=Blues
TTITLE0=CUORE COSA FAI
TTITLE1=SE VUOI
TTITLE2=IO CHE AMO SOLO TE
TTITLE3=SE PIANGI, SE RIDI
TTITLE4=A UN PASSO DAL'AMORE
TTITLE5=IO TE PROPONGO
TTITLE6=NON DIMENTICAR
TTITLE7=BELLA QUANDO
TTITLE8=SALE SULLA PELLE
TTITLE9=AMORE PAZZO
TTITLE10=SBAGLI
TTITLE11=PIOVE
TTITLE12=CORE INGRATO
TTITLE13=VOLANDO
TTITLE14=L'MMENSITÁ
TTITLE15=COMINCIAMO AD AMARCI
TTITLE16=NEL TUO CORPO
TTITLE17=ACCAREZZAME
TTITLE18=COME UNA BAMBINA
TTITLE19=PENSIERI, PENSIERI
EXTD=
EXTT0=
EXTT1=
EXTT2=
EXTT3=
EXTT4=
EXTT5=
EXTT6=
EXTT7=
EXTT8=
EXTT9=
EXTT10=
EXTT11=
EXTT12=
EXTT13=
EXTT14=
EXTT15=
EXTT16=
EXTT17=
EXTT18=
EXTT19=
PLAYORDER=
